<mxfile host="app.diagrams.net" modified="2024-04-15T19:51:00.413Z" agent="Mozilla/5.0 (Windows NT 10.0; Win64; x64) AppleWebKit/537.36 (KHTML, like Gecko) Chrome/123.0.0.0 Safari/537.36" etag="3vsisyLIbwShblLn1Ct9" version="24.2.5" type="device">
  <diagram id="R2lEEEUBdFMjLlhIrx00" name="Page-1">
    <mxGraphModel dx="1434" dy="1914" grid="1" gridSize="10" guides="1" tooltips="1" connect="1" arrows="1" fold="1" page="1" pageScale="1" pageWidth="850" pageHeight="1100" math="0" shadow="0" extFonts="Permanent Marker^https://fonts.googleapis.com/css?family=Permanent+Marker">
      <root>
        <mxCell id="0" />
        <mxCell id="1" parent="0" />
        <mxCell id="lgPBysxkoGh3oB06WPkz-1" value="Music" style="whiteSpace=wrap;html=1;align=center;" vertex="1" parent="1">
          <mxGeometry x="40" y="360" width="100" height="40" as="geometry" />
        </mxCell>
        <mxCell id="lgPBysxkoGh3oB06WPkz-2" value="Size" style="ellipse;whiteSpace=wrap;html=1;align=center;" vertex="1" parent="1">
          <mxGeometry x="40" y="640" width="100" height="40" as="geometry" />
        </mxCell>
        <mxCell id="lgPBysxkoGh3oB06WPkz-3" value="Format" style="ellipse;whiteSpace=wrap;html=1;align=center;" vertex="1" parent="1">
          <mxGeometry x="40" y="570" width="100" height="40" as="geometry" />
        </mxCell>
        <mxCell id="lgPBysxkoGh3oB06WPkz-4" value="CreatorID" style="ellipse;whiteSpace=wrap;html=1;align=center;" vertex="1" parent="1">
          <mxGeometry x="40" y="850" width="100" height="40" as="geometry" />
        </mxCell>
        <mxCell id="lgPBysxkoGh3oB06WPkz-5" value="Price" style="ellipse;whiteSpace=wrap;html=1;align=center;" vertex="1" parent="1">
          <mxGeometry x="40" y="500" width="100" height="40" as="geometry" />
        </mxCell>
        <mxCell id="lgPBysxkoGh3oB06WPkz-6" value="Time" style="ellipse;whiteSpace=wrap;html=1;align=center;" vertex="1" parent="1">
          <mxGeometry x="40" y="710" width="100" height="40" as="geometry" />
        </mxCell>
        <mxCell id="lgPBysxkoGh3oB06WPkz-7" value="Style" style="ellipse;whiteSpace=wrap;html=1;align=center;" vertex="1" parent="1">
          <mxGeometry x="40" y="780" width="100" height="40" as="geometry" />
        </mxCell>
        <mxCell id="lgPBysxkoGh3oB06WPkz-8" value="Album" style="whiteSpace=wrap;html=1;align=center;" vertex="1" parent="1">
          <mxGeometry x="210" y="274" width="100" height="40" as="geometry" />
        </mxCell>
        <mxCell id="lgPBysxkoGh3oB06WPkz-9" value="Name" style="ellipse;whiteSpace=wrap;html=1;align=center;" vertex="1" parent="1">
          <mxGeometry x="210" y="134" width="100" height="40" as="geometry" />
        </mxCell>
        <mxCell id="lgPBysxkoGh3oB06WPkz-10" value="AlbumID" style="ellipse;whiteSpace=wrap;html=1;align=center;" vertex="1" parent="1">
          <mxGeometry x="210" y="64" width="100" height="40" as="geometry" />
        </mxCell>
        <mxCell id="lgPBysxkoGh3oB06WPkz-12" value="ReleaseDate" style="ellipse;whiteSpace=wrap;html=1;align=center;" vertex="1" parent="1">
          <mxGeometry x="210" y="204" width="100" height="40" as="geometry" />
        </mxCell>
        <mxCell id="lgPBysxkoGh3oB06WPkz-13" value="Creator" style="whiteSpace=wrap;html=1;align=center;" vertex="1" parent="1">
          <mxGeometry x="440" y="240" width="100" height="40" as="geometry" />
        </mxCell>
        <mxCell id="lgPBysxkoGh3oB06WPkz-14" value="FirstName" style="ellipse;whiteSpace=wrap;html=1;align=center;" vertex="1" parent="1">
          <mxGeometry x="440" y="100" width="100" height="40" as="geometry" />
        </mxCell>
        <mxCell id="lgPBysxkoGh3oB06WPkz-15" value="CreatorID" style="ellipse;whiteSpace=wrap;html=1;align=center;" vertex="1" parent="1">
          <mxGeometry x="440" y="31" width="100" height="40" as="geometry" />
        </mxCell>
        <mxCell id="lgPBysxkoGh3oB06WPkz-16" value="LastName" style="ellipse;whiteSpace=wrap;html=1;align=center;" vertex="1" parent="1">
          <mxGeometry x="440" y="170" width="100" height="40" as="geometry" />
        </mxCell>
        <mxCell id="lgPBysxkoGh3oB06WPkz-17" value="MusicID" style="ellipse;whiteSpace=wrap;html=1;align=center;" vertex="1" parent="1">
          <mxGeometry x="40" y="430" width="100" height="40" as="geometry" />
        </mxCell>
        <mxCell id="lgPBysxkoGh3oB06WPkz-18" value="AlbumID" style="ellipse;whiteSpace=wrap;html=1;align=center;" vertex="1" parent="1">
          <mxGeometry x="40" y="920" width="100" height="40" as="geometry" />
        </mxCell>
        <mxCell id="lgPBysxkoGh3oB06WPkz-19" value="Factor" style="whiteSpace=wrap;html=1;align=center;" vertex="1" parent="1">
          <mxGeometry x="660" y="240" width="100" height="40" as="geometry" />
        </mxCell>
        <mxCell id="lgPBysxkoGh3oB06WPkz-20" value="FactorID" style="ellipse;whiteSpace=wrap;html=1;align=center;" vertex="1" parent="1">
          <mxGeometry x="660" y="30" width="100" height="40" as="geometry" />
        </mxCell>
        <mxCell id="lgPBysxkoGh3oB06WPkz-21" value="OrderDate" style="ellipse;whiteSpace=wrap;html=1;align=center;" vertex="1" parent="1">
          <mxGeometry x="660" y="99" width="100" height="40" as="geometry" />
        </mxCell>
        <mxCell id="lgPBysxkoGh3oB06WPkz-22" value="FactorDetail" style="whiteSpace=wrap;html=1;align=center;" vertex="1" parent="1">
          <mxGeometry x="900" y="420" width="100" height="40" as="geometry" />
        </mxCell>
        <mxCell id="lgPBysxkoGh3oB06WPkz-23" value="FactorID" style="ellipse;whiteSpace=wrap;html=1;align=center;" vertex="1" parent="1">
          <mxGeometry x="900" y="491" width="100" height="40" as="geometry" />
        </mxCell>
        <mxCell id="lgPBysxkoGh3oB06WPkz-24" value="AlbumID" style="ellipse;whiteSpace=wrap;html=1;align=center;" vertex="1" parent="1">
          <mxGeometry x="900" y="560" width="100" height="40" as="geometry" />
        </mxCell>
        <mxCell id="lgPBysxkoGh3oB06WPkz-25" value="MusicID" style="ellipse;whiteSpace=wrap;html=1;align=center;" vertex="1" parent="1">
          <mxGeometry x="900" y="630" width="100" height="40" as="geometry" />
        </mxCell>
        <mxCell id="lgPBysxkoGh3oB06WPkz-26" value="Count" style="ellipse;whiteSpace=wrap;html=1;align=center;" vertex="1" parent="1">
          <mxGeometry x="900" y="700" width="100" height="40" as="geometry" />
        </mxCell>
        <mxCell id="lgPBysxkoGh3oB06WPkz-27" value="" style="line;strokeWidth=1;rotatable=0;dashed=0;labelPosition=right;align=left;verticalAlign=middle;spacingTop=0;spacingLeft=6;points=[];portConstraint=eastwest;direction=south;" vertex="1" parent="1">
          <mxGeometry x="695" y="210" width="30" height="30" as="geometry" />
        </mxCell>
        <mxCell id="lgPBysxkoGh3oB06WPkz-28" value="" style="line;strokeWidth=1;rotatable=0;dashed=0;labelPosition=right;align=left;verticalAlign=middle;spacingTop=0;spacingLeft=6;points=[];portConstraint=eastwest;direction=south;" vertex="1" parent="1">
          <mxGeometry x="695" y="70" width="30" height="30" as="geometry" />
        </mxCell>
        <mxCell id="lgPBysxkoGh3oB06WPkz-30" value="" style="line;strokeWidth=1;rotatable=0;dashed=0;labelPosition=right;align=left;verticalAlign=middle;spacingTop=0;spacingLeft=6;points=[];portConstraint=eastwest;direction=south;" vertex="1" parent="1">
          <mxGeometry x="935" y="600" width="30" height="30" as="geometry" />
        </mxCell>
        <mxCell id="lgPBysxkoGh3oB06WPkz-32" value="" style="line;strokeWidth=1;rotatable=0;dashed=0;labelPosition=right;align=left;verticalAlign=middle;spacingTop=0;spacingLeft=6;points=[];portConstraint=eastwest;direction=south;" vertex="1" parent="1">
          <mxGeometry x="935" y="461" width="30" height="30" as="geometry" />
        </mxCell>
        <mxCell id="lgPBysxkoGh3oB06WPkz-33" value="" style="line;strokeWidth=1;rotatable=0;dashed=0;labelPosition=right;align=left;verticalAlign=middle;spacingTop=0;spacingLeft=6;points=[];portConstraint=eastwest;direction=south;" vertex="1" parent="1">
          <mxGeometry x="935" y="670" width="30" height="30" as="geometry" />
        </mxCell>
        <mxCell id="lgPBysxkoGh3oB06WPkz-34" value="" style="line;strokeWidth=1;rotatable=0;dashed=0;labelPosition=right;align=left;verticalAlign=middle;spacingTop=0;spacingLeft=6;points=[];portConstraint=eastwest;direction=south;" vertex="1" parent="1">
          <mxGeometry x="475" y="210" width="30" height="30" as="geometry" />
        </mxCell>
        <mxCell id="lgPBysxkoGh3oB06WPkz-35" value="" style="line;strokeWidth=1;rotatable=0;dashed=0;labelPosition=right;align=left;verticalAlign=middle;spacingTop=0;spacingLeft=6;points=[];portConstraint=eastwest;direction=south;" vertex="1" parent="1">
          <mxGeometry x="475" y="71" width="30" height="30" as="geometry" />
        </mxCell>
        <mxCell id="lgPBysxkoGh3oB06WPkz-36" value="" style="line;strokeWidth=1;rotatable=0;dashed=0;labelPosition=right;align=left;verticalAlign=middle;spacingTop=0;spacingLeft=6;points=[];portConstraint=eastwest;direction=south;" vertex="1" parent="1">
          <mxGeometry x="475" y="140" width="30" height="30" as="geometry" />
        </mxCell>
        <mxCell id="lgPBysxkoGh3oB06WPkz-37" value="" style="line;strokeWidth=1;rotatable=0;dashed=0;labelPosition=right;align=left;verticalAlign=middle;spacingTop=0;spacingLeft=6;points=[];portConstraint=eastwest;direction=south;" vertex="1" parent="1">
          <mxGeometry x="245" y="174" width="30" height="30" as="geometry" />
        </mxCell>
        <mxCell id="lgPBysxkoGh3oB06WPkz-38" value="" style="line;strokeWidth=1;rotatable=0;dashed=0;labelPosition=right;align=left;verticalAlign=middle;spacingTop=0;spacingLeft=6;points=[];portConstraint=eastwest;direction=south;" vertex="1" parent="1">
          <mxGeometry x="245" y="104" width="30" height="30" as="geometry" />
        </mxCell>
        <mxCell id="lgPBysxkoGh3oB06WPkz-39" value="" style="line;strokeWidth=1;rotatable=0;dashed=0;labelPosition=right;align=left;verticalAlign=middle;spacingTop=0;spacingLeft=6;points=[];portConstraint=eastwest;direction=south;" vertex="1" parent="1">
          <mxGeometry x="245" y="244" width="30" height="30" as="geometry" />
        </mxCell>
        <mxCell id="lgPBysxkoGh3oB06WPkz-40" value="" style="line;strokeWidth=1;rotatable=0;dashed=0;labelPosition=right;align=left;verticalAlign=middle;spacingTop=0;spacingLeft=6;points=[];portConstraint=eastwest;direction=south;" vertex="1" parent="1">
          <mxGeometry x="75" y="680" width="30" height="30" as="geometry" />
        </mxCell>
        <mxCell id="lgPBysxkoGh3oB06WPkz-41" value="" style="line;strokeWidth=1;rotatable=0;dashed=0;labelPosition=right;align=left;verticalAlign=middle;spacingTop=0;spacingLeft=6;points=[];portConstraint=eastwest;direction=south;" vertex="1" parent="1">
          <mxGeometry x="75" y="610" width="30" height="30" as="geometry" />
        </mxCell>
        <mxCell id="lgPBysxkoGh3oB06WPkz-42" value="" style="line;strokeWidth=1;rotatable=0;dashed=0;labelPosition=right;align=left;verticalAlign=middle;spacingTop=0;spacingLeft=6;points=[];portConstraint=eastwest;direction=south;" vertex="1" parent="1">
          <mxGeometry x="75" y="540" width="30" height="30" as="geometry" />
        </mxCell>
        <mxCell id="lgPBysxkoGh3oB06WPkz-43" value="" style="line;strokeWidth=1;rotatable=0;dashed=0;labelPosition=right;align=left;verticalAlign=middle;spacingTop=0;spacingLeft=6;points=[];portConstraint=eastwest;direction=south;" vertex="1" parent="1">
          <mxGeometry x="75" y="471" width="30" height="30" as="geometry" />
        </mxCell>
        <mxCell id="lgPBysxkoGh3oB06WPkz-44" value="" style="line;strokeWidth=1;rotatable=0;dashed=0;labelPosition=right;align=left;verticalAlign=middle;spacingTop=0;spacingLeft=6;points=[];portConstraint=eastwest;direction=south;" vertex="1" parent="1">
          <mxGeometry x="75" y="400" width="30" height="30" as="geometry" />
        </mxCell>
        <mxCell id="lgPBysxkoGh3oB06WPkz-45" value="" style="line;strokeWidth=1;rotatable=0;dashed=0;labelPosition=right;align=left;verticalAlign=middle;spacingTop=0;spacingLeft=6;points=[];portConstraint=eastwest;direction=south;" vertex="1" parent="1">
          <mxGeometry x="75" y="750" width="30" height="30" as="geometry" />
        </mxCell>
        <mxCell id="lgPBysxkoGh3oB06WPkz-46" value="" style="line;strokeWidth=1;rotatable=0;dashed=0;labelPosition=right;align=left;verticalAlign=middle;spacingTop=0;spacingLeft=6;points=[];portConstraint=eastwest;direction=south;" vertex="1" parent="1">
          <mxGeometry x="75" y="820" width="30" height="30" as="geometry" />
        </mxCell>
        <mxCell id="lgPBysxkoGh3oB06WPkz-47" value="" style="line;strokeWidth=1;rotatable=0;dashed=0;labelPosition=right;align=left;verticalAlign=middle;spacingTop=0;spacingLeft=6;points=[];portConstraint=eastwest;direction=south;" vertex="1" parent="1">
          <mxGeometry x="75" y="890" width="30" height="30" as="geometry" />
        </mxCell>
        <mxCell id="lgPBysxkoGh3oB06WPkz-48" value="TotalPrice" style="ellipse;whiteSpace=wrap;html=1;align=center;" vertex="1" parent="1">
          <mxGeometry x="660" y="169" width="100" height="40" as="geometry" />
        </mxCell>
        <mxCell id="lgPBysxkoGh3oB06WPkz-50" value="" style="line;strokeWidth=1;rotatable=0;dashed=0;labelPosition=right;align=left;verticalAlign=middle;spacingTop=0;spacingLeft=6;points=[];portConstraint=eastwest;direction=south;" vertex="1" parent="1">
          <mxGeometry x="695" y="139" width="30" height="30" as="geometry" />
        </mxCell>
        <mxCell id="lgPBysxkoGh3oB06WPkz-51" value="Price" style="ellipse;whiteSpace=wrap;html=1;align=center;" vertex="1" parent="1">
          <mxGeometry x="900" y="770" width="100" height="40" as="geometry" />
        </mxCell>
        <mxCell id="lgPBysxkoGh3oB06WPkz-52" value="" style="line;strokeWidth=1;rotatable=0;dashed=0;labelPosition=right;align=left;verticalAlign=middle;spacingTop=0;spacingLeft=6;points=[];portConstraint=eastwest;direction=south;" vertex="1" parent="1">
          <mxGeometry x="935" y="740" width="30" height="30" as="geometry" />
        </mxCell>
        <mxCell id="lgPBysxkoGh3oB06WPkz-54" value="CreatorID" style="ellipse;whiteSpace=wrap;html=1;align=center;" vertex="1" parent="1">
          <mxGeometry x="210" y="-6" width="100" height="40" as="geometry" />
        </mxCell>
        <mxCell id="lgPBysxkoGh3oB06WPkz-55" value="" style="line;strokeWidth=1;rotatable=0;dashed=0;labelPosition=right;align=left;verticalAlign=middle;spacingTop=0;spacingLeft=6;points=[];portConstraint=eastwest;direction=south;" vertex="1" parent="1">
          <mxGeometry x="245" y="34" width="30" height="30" as="geometry" />
        </mxCell>
        <mxCell id="lgPBysxkoGh3oB06WPkz-56" value="" style="edgeStyle=orthogonalEdgeStyle;fontSize=12;html=1;endArrow=ERzeroToMany;startArrow=ERmandOne;rounded=0;entryX=1;entryY=0.5;entryDx=0;entryDy=0;exitX=0.5;exitY=1;exitDx=0;exitDy=0;" edge="1" parent="1" source="lgPBysxkoGh3oB06WPkz-13" target="lgPBysxkoGh3oB06WPkz-1">
          <mxGeometry width="100" height="100" relative="1" as="geometry">
            <mxPoint x="490" y="290" as="sourcePoint" />
            <mxPoint x="575" y="350" as="targetPoint" />
          </mxGeometry>
        </mxCell>
        <mxCell id="lgPBysxkoGh3oB06WPkz-57" value="" style="edgeStyle=orthogonalEdgeStyle;fontSize=12;html=1;endArrow=ERzeroToMany;startArrow=ERmandOne;rounded=0;entryX=1;entryY=0.5;entryDx=0;entryDy=0;exitX=0;exitY=0.5;exitDx=0;exitDy=0;" edge="1" parent="1" source="lgPBysxkoGh3oB06WPkz-13" target="lgPBysxkoGh3oB06WPkz-8">
          <mxGeometry width="100" height="100" relative="1" as="geometry">
            <mxPoint x="320" y="459.5" as="sourcePoint" />
            <mxPoint x="425" y="350" as="targetPoint" />
          </mxGeometry>
        </mxCell>
        <mxCell id="lgPBysxkoGh3oB06WPkz-60" value="Customer" style="whiteSpace=wrap;html=1;align=center;" vertex="1" parent="1">
          <mxGeometry x="660" y="520" width="100" height="40" as="geometry" />
        </mxCell>
        <mxCell id="lgPBysxkoGh3oB06WPkz-61" value="&lt;span style=&quot;border-bottom: 1px dotted&quot;&gt;CustomerID&lt;/span&gt;" style="ellipse;whiteSpace=wrap;html=1;align=center;" vertex="1" parent="1">
          <mxGeometry x="660" y="590" width="100" height="40" as="geometry" />
        </mxCell>
        <mxCell id="lgPBysxkoGh3oB06WPkz-62" value="&lt;span style=&quot;border-bottom: 1px dotted&quot;&gt;Name&lt;/span&gt;" style="ellipse;whiteSpace=wrap;html=1;align=center;" vertex="1" parent="1">
          <mxGeometry x="660" y="660" width="100" height="40" as="geometry" />
        </mxCell>
        <mxCell id="lgPBysxkoGh3oB06WPkz-63" value="&lt;span style=&quot;border-bottom: 1px dotted&quot;&gt;Phone&lt;/span&gt;" style="ellipse;whiteSpace=wrap;html=1;align=center;" vertex="1" parent="1">
          <mxGeometry x="660" y="730" width="100" height="40" as="geometry" />
        </mxCell>
        <mxCell id="lgPBysxkoGh3oB06WPkz-64" value="" style="line;strokeWidth=1;rotatable=0;dashed=0;labelPosition=right;align=left;verticalAlign=middle;spacingTop=0;spacingLeft=6;points=[];portConstraint=eastwest;direction=south;" vertex="1" parent="1">
          <mxGeometry x="695" y="560" width="30" height="30" as="geometry" />
        </mxCell>
        <mxCell id="lgPBysxkoGh3oB06WPkz-65" value="" style="line;strokeWidth=1;rotatable=0;dashed=0;labelPosition=right;align=left;verticalAlign=middle;spacingTop=0;spacingLeft=6;points=[];portConstraint=eastwest;direction=south;" vertex="1" parent="1">
          <mxGeometry x="695" y="630" width="30" height="30" as="geometry" />
        </mxCell>
        <mxCell id="lgPBysxkoGh3oB06WPkz-66" value="" style="line;strokeWidth=1;rotatable=0;dashed=0;labelPosition=right;align=left;verticalAlign=middle;spacingTop=0;spacingLeft=6;points=[];portConstraint=eastwest;direction=south;" vertex="1" parent="1">
          <mxGeometry x="695" y="700" width="30" height="30" as="geometry" />
        </mxCell>
        <mxCell id="lgPBysxkoGh3oB06WPkz-67" value="BirthDate" style="ellipse;whiteSpace=wrap;html=1;align=center;" vertex="1" parent="1">
          <mxGeometry x="660" y="800" width="100" height="40" as="geometry" />
        </mxCell>
        <mxCell id="lgPBysxkoGh3oB06WPkz-68" value="" style="line;strokeWidth=1;rotatable=0;dashed=0;labelPosition=right;align=left;verticalAlign=middle;spacingTop=0;spacingLeft=6;points=[];portConstraint=eastwest;direction=south;" vertex="1" parent="1">
          <mxGeometry x="695" y="770" width="30" height="30" as="geometry" />
        </mxCell>
        <mxCell id="lgPBysxkoGh3oB06WPkz-69" value="&lt;span style=&quot;border-bottom: 1px dotted&quot;&gt;CustomerID&lt;/span&gt;" style="ellipse;whiteSpace=wrap;html=1;align=center;" vertex="1" parent="1">
          <mxGeometry x="660" y="-40" width="100" height="40" as="geometry" />
        </mxCell>
        <mxCell id="lgPBysxkoGh3oB06WPkz-71" value="" style="line;strokeWidth=1;rotatable=0;dashed=0;labelPosition=right;align=left;verticalAlign=middle;spacingTop=0;spacingLeft=6;points=[];portConstraint=eastwest;direction=south;" vertex="1" parent="1">
          <mxGeometry x="695" y="-1" width="30" height="30" as="geometry" />
        </mxCell>
        <mxCell id="lgPBysxkoGh3oB06WPkz-72" value="" style="line;strokeWidth=1;rotatable=0;dashed=0;labelPosition=right;align=left;verticalAlign=middle;spacingTop=0;spacingLeft=6;points=[];portConstraint=eastwest;direction=south;" vertex="1" parent="1">
          <mxGeometry x="935" y="530" width="30" height="30" as="geometry" />
        </mxCell>
        <mxCell id="lgPBysxkoGh3oB06WPkz-73" value="" style="edgeStyle=orthogonalEdgeStyle;fontSize=12;html=1;endArrow=ERoneToMany;startArrow=ERmandOne;rounded=0;entryX=0.5;entryY=0;entryDx=0;entryDy=0;" edge="1" parent="1" target="lgPBysxkoGh3oB06WPkz-22">
          <mxGeometry width="100" height="100" relative="1" as="geometry">
            <mxPoint x="760" y="260" as="sourcePoint" />
            <mxPoint x="960" y="261" as="targetPoint" />
          </mxGeometry>
        </mxCell>
        <mxCell id="lgPBysxkoGh3oB06WPkz-74" value="" style="edgeStyle=orthogonalEdgeStyle;fontSize=12;html=1;endArrow=ERoneToMany;startArrow=ERmandOne;rounded=0;entryX=0.5;entryY=1;entryDx=0;entryDy=0;exitX=0.5;exitY=0;exitDx=0;exitDy=0;" edge="1" parent="1" source="lgPBysxkoGh3oB06WPkz-60" target="lgPBysxkoGh3oB06WPkz-19">
          <mxGeometry width="100" height="100" relative="1" as="geometry">
            <mxPoint x="680" y="340" as="sourcePoint" />
            <mxPoint x="880" y="440" as="targetPoint" />
            <Array as="points">
              <mxPoint x="710" y="500" />
              <mxPoint x="710" y="500" />
            </Array>
          </mxGeometry>
        </mxCell>
        <mxCell id="lgPBysxkoGh3oB06WPkz-76" value="" style="edgeStyle=orthogonalEdgeStyle;fontSize=12;html=1;endArrow=ERzeroToOne;startArrow=ERmandOne;rounded=0;entryX=0;entryY=0.5;entryDx=0;entryDy=0;exitX=0.5;exitY=1;exitDx=0;exitDy=0;" edge="1" parent="1" source="lgPBysxkoGh3oB06WPkz-8" target="lgPBysxkoGh3oB06WPkz-22">
          <mxGeometry width="100" height="100" relative="1" as="geometry">
            <mxPoint x="590" y="569.5" as="sourcePoint" />
            <mxPoint x="310" y="423.5" as="targetPoint" />
          </mxGeometry>
        </mxCell>
        <mxCell id="lgPBysxkoGh3oB06WPkz-77" value="" style="edgeStyle=orthogonalEdgeStyle;fontSize=12;html=1;endArrow=ERzeroToOne;startArrow=ERmandOne;rounded=0;exitX=0.5;exitY=0;exitDx=0;exitDy=0;" edge="1" parent="1" source="lgPBysxkoGh3oB06WPkz-1">
          <mxGeometry width="100" height="100" relative="1" as="geometry">
            <mxPoint x="90" y="344" as="sourcePoint" />
            <mxPoint x="900" y="440" as="targetPoint" />
            <Array as="points">
              <mxPoint x="90" y="350" />
              <mxPoint x="820" y="350" />
              <mxPoint x="820" y="440" />
            </Array>
          </mxGeometry>
        </mxCell>
      </root>
    </mxGraphModel>
  </diagram>
</mxfile>
